/* XPM */
static char *result[] = {
/* columns rows colors chars-per-pixel */
"50 49 205 2 ",
"   c #1B1A1B",
".  c #201C1C",
"X  c #241F21",
"o  c #1D2E38",
"O  c #1D323B",
"+  c #1E262E",
"@  c #2A2728",
"#  c #352D2C",
"$  c #3B312D",
"%  c #342F32",
"&  c #29353B",
"*  c #323335",
"=  c #3D3532",
"-  c #393839",
";  c #222D35",
":  c #473E38",
">  c #385237",
",  c #324A34",
"<  c #434D1E",
"1  c #545918",
"2  c #797807",
"3  c #7B7E1E",
"4  c #4B433D",
"5  c #4A5231",
"6  c #506432",
"7  c #6D7632",
"8  c #1B3E4B",
"9  c #243D47",
"0  c #403E40",
"q  c #194B59",
"w  c #1A4B4F",
"e  c #25454C",
"r  c #214455",
"t  c #284A57",
"y  c #27575E",
"u  c #364E50",
"i  c #185368",
"p  c #0A5C77",
"a  c #1D5D79",
"s  c #1D5B73",
"d  c #105065",
"f  c #285668",
"g  c #225D75",
"h  c #215E79",
"j  c #3E5C66",
"k  c #06617C",
"l  c #0A637F",
"z  c #18666F",
"x  c #27637A",
"c  c #2F6269",
"v  c #444848",
"b  c #564B43",
"n  c #5D4E44",
"m  c #594B49",
"M  c #5E524C",
"N  c #465358",
"B  c gray33",
"V  c #454D51",
"C  c #64564C",
"Z  c #61594E",
"A  c #685B53",
"S  c #446146",
"D  c #6D6255",
"F  c #73665A",
"G  c #67734D",
"H  c #4D5F65",
"J  c #586369",
"K  c #477376",
"L  c #6B6A6B",
"P  c #646668",
"I  c #766C63",
"U  c #6D6D71",
"Y  c #787779",
"T  c #72716F",
"R  c #847B6A",
"E  c #87776B",
"W  c #937D73",
"Q  c #8F7A71",
"!  c #7F8118",
"~  c #49806C",
"^  c #8B8A05",
"/  c #999A07",
"(  c #92920F",
")  c #B5B911",
"_  c #B3B50E",
"`  c #B8BE34",
"'  c #8C9C30",
"]  c #BEC315",
"[  c #C8CE19",
"{  c #D4DB1C",
"}  c #CCD219",
"|  c #D8E01B",
" . c #D5DA3C",
".. c #DAE228",
"X. c #8D8372",
"o. c #958276",
"O. c #9B857A",
"+. c #958C7A",
"@. c #9D8B7D",
"#. c #988277",
"$. c #A18D7F",
"%. c #AFB774",
"&. c #A0A74F",
"*. c #BCC176",
"=. c #C1C444",
"-. c #DEE541",
";. c #E2E75A",
":. c #E7EC73",
">. c #036483",
",. c #026A8C",
"<. c #0D6787",
"1. c #1C6583",
"2. c #037395",
"3. c #04769A",
"4. c #08789D",
"5. c #127495",
"6. c #1C7495",
"7. c #026E90",
"8. c #227A9E",
"9. c #247595",
"0. c #296E8B",
"q. c #057CA2",
"w. c #0A7CA1",
"e. c #1A7CA3",
"r. c #207DA4",
"t. c #6B7F85",
"y. c #667B83",
"u. c #7A7E82",
"i. c #398187",
"p. c #2C849A",
"a. c #0A84AD",
"s. c #0782AA",
"d. c #1982AC",
"f. c #0C8BB6",
"g. c #0E8EBB",
"h. c #0986B1",
"j. c #1A8AB6",
"k. c #0F91BE",
"l. c #1591BF",
"z. c #2385AA",
"x. c #348AAE",
"c. c #268CB5",
"v. c #2690BB",
"b. c #6C8087",
"n. c #73848A",
"m. c #718187",
"M. c #1495C3",
"N. c #1A94C3",
"B. c #1799CA",
"V. c #199BCD",
"C. c #1A9ED1",
"Z. c #2195C4",
"A. c #209BCC",
"S. c #2097C8",
"D. c #209ED1",
"F. c #1BA2D5",
"G. c #1DA6DA",
"H. c #1EA9DD",
"J. c #21A2D6",
"K. c #21A5D9",
"L. c #20A9DE",
"P. c #1EAAE2",
"I. c #21ABE2",
"U. c #2DADE0",
"Y. c #31B2E5",
"T. c #55B0D4",
"R. c #51BCE8",
"E. c #66C3EA",
"W. c #868788",
"Q. c #9C9489",
"!. c #999A9C",
"~. c #AD9A89",
"^. c #A89785",
"/. c #AA9786",
"(. c #B2A38D",
"). c #B9AB94",
"_. c #BFB299",
"`. c #BDB197",
"'. c #9D9EA1",
"]. c #A6A8A9",
"[. c #ADAEB0",
"{. c #B2B3B4",
"}. c #B9BABC",
"|. c #BAB7B5",
" X c #AEB1B4",
".X c #C2B59B",
"XX c #C7BAA3",
"oX c #C2BCB4",
"OX c #C4C491",
"+X c #F0F1B4",
"@X c #DEDA9A",
"#X c #BCBEC0",
"$X c #BEC0C2",
"%X c #BDE6F7",
"&X c #C3C4C6",
"*X c #C9CACB",
"=X c #DCD3C4",
"-X c #DFD8CA",
";X c #D3D4D6",
":X c #E0D9CB",
">X c #F7F8C9",
",X c #D4E5EC",
"<X c #E1E2E3",
"1X c #E8F6FC",
"2X c None",
/* pixels */
"2X2X2X2X2X2X2X2X2X2X2X2X2X2X2X2X2X2X2X2X2X2X2X2X2X2X2X2X2X2X2X2X2X2X2X2X2X2X2X2X2X2X2X2X2X2X2X2X2X2X",
"2X2X2X2X2X2X2X2X2X2X2X2X2X2X2X2X2X2X2X2X2X2X2X2X2X2X2X2X2X2X2X2X2X2X2X2X2X2X2X2X2X2X2X2X2X2X2X2X2X2X",
"2X2X2X2X2X2X2X2X2X2X2X2X2X2X2X2X2X2X2X2X2X2X2X2X2X2X2X2X2X2X2X2X2X2X2X2X2X2X2X2X2X2X2X2X2X2X2X2X2X2X",
"2X2X2X2X2X2X2X2X2X2X2X2X2X2X2X2X2X2X2X2X2X2X2X2X2X2X2X2X2X2X2X2X2X2X2X2X2X2X2X2X2X2X2X2X2X2X2X2X2X2X",
"2X2X2X2X2X2X2X2X2X2X2X2X2X2X2X2X2X2X2X2X2X2X2X2X2X2X2X2X2X2X2X2X2X2X2X2X2X2X2X2X2X2X2X2X2X2X2X2X2X2X",
"2X2X2X2X2X2X2X2X2X2X2X2X2X2X2X2X2X2X2X2X2X* % 2X2X2X2X2X2X2X2X2X2X2X2X2X2X2X2X2X2X2X2X2X2X2X2X2X2X2X",
"2X2X2X2X2X2X2X2X2X2X2X2X2X2X2X2X2X2X2X2X2XY L 2X2X2X2X2X2X2X2X2X2X2X2X2X2XX 2X2X2X2X2X2X2X2X2X2X2X2X",
"2X2X2X2X2X2X2X2X2X2X2X2X2X2X2X2X2X2X2X2X- |.[.2X2X2X2X2X2X2X2X2X2X2X2Xv L = 2X2X2X2X2X2X2X2X2X2X2X2X",
"2X2X2X2X2X2X2X2X2X2X2X2X2X2X2X2X2X2X2X2XV #X;XB 2Xg g h 2X2X2X2X2X0 Y {.Y 2X2X2X2X2X2X2X2X2X2X2X2X2X",
"2X2X2X2X2X2X2X2X2X2X2X2X2X2X2X2X2X2X2X@ P '.*XW.a V.J.G.J.A.r.e U }.<X{.0 2X2X2X2X2X2X2X2X2X2X2X2X2X",
"2X2X2X2X2X2X2X2X2X2X2X2X2X2X2X2X2X2X2X* Y u.W.Y i B.L.M.w.9.K ].<X<X&XL 2X2X2X2X2X2X2X2X2X2X2X2X2X2X",
"2X2X2X2X2X2X2X2X2X2X2X2X2X2X2X2X2X; a l g f i p 4.G.B.k t U }.;X*XoX'.f 1.2X2X2X2X2X2X2X2X2X2X2X2X2X",
"2X2X2X2X2X2X2X2X2X2X2X2X2X2X2X2X& 6.I.F.k.f.g.C.P.P.M.p V W.{.$X#X}.J c.R.c.i 2X2X2X2X2X2X2X2X2X2X2X",
"2X2X2X2X2X2X2X2X2X2X2X2X2X2X2XO e.F.B.I.I.I.I.M.G.P.B.7.q U '.#X#X!.x U.%X%XT.a 2X2X2X2X2X2X2X2X2X2X",
"2X2X2X2X2X2X2X2X2X2X2X2X2X2X+ 9.I.F.B.I.I.L.G.B.G.P.I.a.>.t Y ].{.H j.I.E.1X1XT.h 2X2X2X2X2X2X2X2X2X",
"2X2X2X2X2X2X2X2X2X2X2X2X2X2Xa L.I.I.I.I.L.h.q.F.I.I.I.G.q.>.t P P x I.I.L.E.1X1XT.i 2X2X2X2X2X2X2X2X",
"2X2X2X2X2X2X2X2X2X2X2X2X2Xr A.I.I.I.I.I.H.s.2.V.H.B.F.I.F.f.2.k p N.I.I.I.I.R.,X%XZ.9 2X2X2X2X2X2X2X",
"2X2X2X2X2X2X2X2X2X2X2X: : g I.I.I.I.L.I.P.H.F.P.C.2.B.I.I.L.F.V.C.I.I.I.I.I.P.Y.R.I.6.2X2X2X2X2X2X2X",
"2X2X2X2X2X2X2X2X2Xm C A v d.I.I.I.I.I.H.C.V.I.I.H.C.H.I.I.H.H.F.I.I.N.6.c.c.x.x.x.x.9.% 2X2X2X2X2X2X",
"2X2X2X2X2X2X2X2Xb = b C f I.I.I.I.I.I.B.2.2.B.I.K.6.S.L.B.C.s.3.C.C.p Y  X#X&X*X&X[.P r 2X2X2X2X2X2X",
"2X2X2X2X2X2X2XF F = 4 M x I.I.I.I.I.I.V.3.3.C.I.l.i K.L.M.F.f.a.C.g.r '.&X*X;X*X XP 0.Z.9 2X2X2X2X2X",
"2X2X2X2X2X2XI ~.X.D M 4 x I.I.I.I.L.I.I.F.F.I.I.V.d z.L.L.I.L.H.I.q.t [.#X#X#X].L g d.S.a 2X2X2X2X2X",
"2X2X2X2X2XI `.+.~.F X.4 t J.I.D.A.L.I.I.I.I.I.I.K.l u z.I.L.I.I.I.q.t ].#X#X'.T f A.h d.r.2X2X2X2X2X",
"2X2X2X2X5 (..XX.`.+.R R : r.0.N N x A.I.I.I.I.I.G.i ( ' p.I.I.I.I.q.d Y ].!.u.u v.r.8 M.v.o 2X2X2X2X",
"2X2X2X= F R X.X.^.R M +.v & : D F b f K.I.I.I.I.M.> [ ;.&.9.L.I.I.B.,.r L W.V r.A.S 7 4.D.8 2X2X2X2X",
"2X2X2X$ b 2X@ 4 2X2X@ f v.t : 5 A C - Z.I.I.I.I.w.1 } ;.+X%.i.L.I.I.g.,.q u s I.x &.` f V.r 2X2X2X2X",
"2X2X@ # 2X2X2X  2X2X; j.I.6.4 F D C * l.I.I.I.H.<.1 _ { :.>X%.i.G.P.K.M.4.2.N.j.G +X-.5 j.t 2X2X2X2X",
"2X2X. 2X2X2X2X2X2X2Xo v.I.a.& 4 n : w B.I.I.I.H.<.1 / [ | ;.>X*.K J.I.I.G.J.J.c OX:.{ 6 d.q 2X2X2X2X",
"2X2X2X2X2X2X2X2X2X2X2Xd.I.k.d e * q 4.H.L.I.I.I.5.< ^ / } |  .@X` ~ V.Z.P.1.1.! :...[ 5 e.w 2X2X2X2X",
"2X2X2X2X2X2X2X2X2X2X2X9.I.H.h.2.2.g.H.P.I.I.I.I.k.w 2 ^ / _ | | { ! i s A.e.q ! [ ) ^ e d.9 2X2X2X2X",
"2X2X2X2X2X2X2X2X2X2X2Xs I.I.K.d.e.p.9.p.K.I.I.I.H.4., 2 ^ ^ / ^ 1 q 2.e.K.I.a.> ! ! < 5.r.2X2X2X2X2X",
"2X2X2X2X2X2X2X2X2X2X2Xe D.H.a L +.+.^.T 9.I.I.I.I.F.3.w > < , w >.g.G.G.I.G.C.s.z z 5.F.h 2X2X2X2X2X",
"2X2X2X2X2X2X2X2X2X2X2X2X6.w.H XXXX.X.X.XH M.P.I.I.I.G.g.q.2.q.g.C.I.G.f.H.k.V.L.F.F.P.D.e 2X2X2X2X2X",
"2X2X2X2X2X2X2X2X2X2X2X2XO H |.XX.X.X.XXXu.>.M.C.I.I.I.I.P.G.K.I.I.P.P.C.F.F.F.F.F.V.V.1.2X2X2X2X2X2X",
"2X2X2X2X2X2X2X2X2X2X2X2X2XQ.XX.X.X.X.X.XoXt >.,.3.q.q.q.w.3.q.3.2.2.2.,.,.,.,.,.,.>.k o 2X2X2X2X2X2X",
"2X2X2X2X2X2X2X2X2X2X2X2X2Xb ~..X.X.X.X.X=X].y.y.y.t.t.t.t.t.y.t.n.n.t.t.m.m.m.n.n.m.& 2X2X2X2X2X2X2X",
"2X2X2X2X2X2X2X2X2X2X2X2X2X2XM ^.)..X.X.XXX=X:X:X-X:X-X-X:X=X=X=X:X=X=X=X=X=X=X=X=XQ.% 2X2X2X2X2X2X2X",
"2X2X2X2X2X2X2X2X2X2X2X2X2X2X2XA ^.)..X.X.X.X.X.X.X.X.X_..X.X.X.X.X.X.X.X.X.X_..X+.$ 2X2X2X2X2X2X2X2X",
"2X2X2X2X2X2X2X2X2X2X2X2X2X2X2X2XA O./.(..X.X.X.X.X.X.X.X.X.X.X.X.X.X.X.X.X.X.XQ = 2X2X2X2X2X2X2X2X2X",
"2X2X2X2X2X2X2X2X2X2X2X2X2X2X2X2X2XC Q $./.(..X.XXX.X.X.X.X.X.X.X.X.X.X.X.X~.F # 2X2X2X2X2X2X2X2X2X2X",
"2X2X2X2X2X2X2X2X2X2X2X2X2X2X2X2X2X2Xm E W $.$.~.(.)..X.X.X.X.X.X.X.X).(.Q b 2X2X2X2X2X2X2X2X2X2X2X2X",
"2X2X2X2X2X2X2X2X2X2X2X2X2X2X2X2X2X2X2X2XA E W $.W $././.~.~.~./.^.@.E M % 2X2X2X2X2X2X2X2X2X2X2X2X2X",
"2X2X2X2X2X2X2X2X2X2X2X2X2X2X2X2X2X2X2X2X2X2XA I Q W W W W W Q E D b 2X2X2X2X2X2X2X2X2X2X2X2X2X2X2X2X",
"2X2X2X2X2X2X2X2X2X2X2X2X2X2X2X2X2X2X2X2X2X2X2X2X2X2XM M M n v 2X2X2X2X2X2X2X2X2X2X2X2X2X2X2X2X2X2X2X",
"2X2X2X2X2X2X2X2X2X2X2X2X2X2X2X2X2X2X2X2X2X2X2X2X2X2X2X2X2X2X2X2X2X2X2X2X2X2X2X2X2X2X2X2X2X2X2X2X2X2X",
"2X2X2X2X2X2X2X2X2X2X2X2X2X2X2X2X2X2X2X2X2X2X2X2X2X2X2X2X2X2X2X2X2X2X2X2X2X2X2X2X2X2X2X2X2X2X2X2X2X2X",
"2X2X2X2X2X2X2X2X2X2X2X2X2X2X2X2X2X2X2X2X2X2X2X2X2X2X2X2X2X2X2X2X2X2X2X2X2X2X2X2X2X2X2X2X2X2X2X2X2X2X",
"2X2X2X2X2X2X2X2X2X2X2X2X2X2X2X2X2X2X2X2X2X2X2X2X2X2X2X2X2X2X2X2X2X2X2X2X2X2X2X2X2X2X2X2X2X2X2X2X2X2X",
"2X2X2X2X2X2X2X2X2X2X2X2X2X2X2X2X2X2X2X2X2X2X2X2X2X2X2X2X2X2X2X2X2X2X2X2X2X2X2X2X2X2X2X2X2X2X2X2X2X2X"
};
