/* XPM */
static char *a04e32c54ac343e7f4047385961f6f47rEWjzYFPysbU9cFg[] = {
/* columns rows colors chars-per-pixel */
"50 50 194 2 ",
"   c None",
".  c #0A1920",
"X  c #231F20",
"o  c #1C2B33",
"O  c #242223",
"+  c #22262A",
"@  c #23292E",
"#  c #2F2A29",
"$  c #342E2D",
"%  c #38322F",
"&  c #363922",
"*  c #273638",
"=  c #3C3432",
"-  c #373D3F",
";  c #493E38",
":  c #453D39",
">  c #3C4224",
",  c #344B38",
"<  c #565418",
"1  c #706F12",
"2  c #757512",
"3  c #67681B",
"4  c #474D28",
"5  c #565C27",
"6  c #4A423D",
"7  c #47403A",
"8  c #4A4B3C",
"9  c #656723",
"0  c #76772F",
"q  c #253D48",
"w  c #313D43",
"e  c #1C4453",
"r  c #164A5B",
"t  c #1D4A56",
"y  c #1C555D",
"u  c #264347",
"i  c #37454A",
"p  c #244858",
"a  c #345358",
"s  c #344F4B",
"d  c #184E62",
"f  c #11566C",
"g  c #1B546B",
"h  c #11586F",
"j  c #0F5971",
"k  c #125F79",
"l  c #244E61",
"z  c #245166",
"x  c #24556C",
"c  c #295667",
"v  c #255C76",
"b  c #166179",
"n  c #29627B",
"m  c #4D4843",
"M  c #4B4441",
"N  c #534C44",
"B  c #5A4D44",
"V  c #554A46",
"C  c #5C544B",
"Z  c #5B544B",
"A  c #545652",
"S  c #455153",
"D  c #64584E",
"F  c #60564C",
"G  c #675E53",
"H  c #695E54",
"J  c #537454",
"K  c #456D5B",
"L  c #617540",
"P  c #6B6155",
"I  c #6D6259",
"U  c #71625A",
"Y  c #756C5F",
"T  c #607E53",
"R  c #4E5E65",
"E  c #467667",
"W  c #6F6861",
"Q  c #7B6C62",
"!  c #707576",
"~  c #816F66",
"^  c #837569",
"/  c #847B6B",
"(  c #8C796E",
")  c #8A766D",
"_  c #927E73",
"`  c #7C814C",
"'  c #8C8C0C",
"]  c #82810E",
"[  c #90900D",
"{  c #868610",
"}  c #A7AA14",
"|  c #B7BC19",
" . c #ACB122",
".. c #BDC21C",
"X. c #C8CF1F",
"o. c #CAD01F",
"O. c #C5CC22",
"+. c #D5DD23",
"@. c #D7DF29",
"#. c #D8DF2C",
"$. c #D2D838",
"%. c #D9E134",
"&. c #A7A955",
"*. c #938375",
"=. c #9A8579",
"-. c #9E897C",
";. c #9D927E",
":. c #A18C7F",
">. c #D6DB6A",
",. c #E3E96C",
"<. c #E7EC7C",
"1. c #066E8F",
"2. c #0F6D8D",
"3. c #126480",
"4. c #076F90",
"5. c #0A7395",
"6. c #0B7699",
"7. c #0C799D",
"8. c #077090",
"9. c #187699",
"0. c #286985",
"q. c #2E738F",
"w. c #257293",
"e. c #25789C",
"r. c #0E7DA3",
"t. c #127EA4",
"y. c #257DA4",
"u. c #0F80A6",
"i. c #1284AC",
"p. c #1481A9",
"a. c #1587B0",
"s. c #1589B4",
"d. c #178DB9",
"f. c #1A8EBB",
"g. c #198BB5",
"h. c #1991BE",
"j. c #2483AC",
"k. c #2681A7",
"l. c #2587B0",
"z. c #248DBA",
"x. c #258CB7",
"c. c #2691BE",
"v. c #1B94C3",
"b. c #1E9ACB",
"n. c #1D97C8",
"m. c #2694C3",
"M. c #249CCE",
"N. c #2997C6",
"B. c #339FCD",
"V. c #229ED1",
"C. c #23A1D5",
"Z. c #25A5DB",
"A. c #26A8DF",
"S. c #3DA5D1",
"D. c #26A9E0",
"F. c #37AFE1",
"G. c #37B0E2",
"H. c #4FAFD8",
"J. c #51BAE6",
"K. c #64C2E9",
"L. c #74C8EB",
"P. c #878685",
"I. c #A39382",
"U. c #AA9786",
"Y. c #AD9F8A",
"T. c #AFA38C",
"R. c #B3A48F",
"E. c #AFA490",
"W. c #BAAC95",
"Q. c #B5A891",
"!. c #BEB097",
"~. c #BFB299",
"^. c #BCB7B1",
"/. c #C1B49A",
"(. c #C7BBA5",
"). c #D4D78B",
"_. c #D7CFBE",
"`. c #DEDFB3",
"'. c #CCC1AC",
"]. c #EEF1A3",
"[. c #EAECB1",
"{. c #A9DDF3",
"}. c #BEE5F6",
"|. c #C6C4C4",
" X c #C9C7C6",
".X c #CBC9C7",
"XX c #CBCBC9",
"oX c #D5CEC1",
"OX c #EFF1C2",
"+X c #F4F6C4",
"@X c #E3E1DF",
"#X c #EAF6FC",
"$X c #E5F5FB",
"%X c #F3FAFD",
/* pixels */
"                                                                                                    ",
"                                                                                                    ",
"                                                                                                    ",
"                                                                                                    ",
"                                                                                                    ",
"                                                                                                    ",
"                                                                                                    ",
"                                                                                                    ",
"                                                                                                    ",
"                                                  x v x z                                           ",
"                                          O d 9.z.Z.A.D.Z.V.m.e.q                                   ",
"                                      . g g.Z.D.v.n.A.b.f.C.D.A.N.0.e                               ",
"                                    x 5.s.d.a.t.r.C.n.7.M.D.D.D.D.D.D.m.v                           ",
"                                + e.Z.V.v.s.d.b.Z.D.d.7.A.D.D.D.D.D.D.D.F.c.z                       ",
"                              + n C.b.D.D.D.D.b.Z.D.b.8.b.D.D.D.D.D.D.D.}.{.H.p                     ",
"      O % = Z C N 6 6         w.A.C.n.D.D.A.D.v.C.D.A.i.7.C.D.D.D.D.D.D.K.%X#XH.z                   ",
"            C Q.Q.T.*.P V B i M.D.D.D.D.D.a.u.V.D.D.D.C.r.6.b.D.D.D.D.D.D.K.$X$XH.z                 ",
"              ^ ~.~.!.!.;.V G A q.A.D.D.Z.r.4.d.D.Z.A.D.C.r.4.i.d.b.D.D.D.D.J.#X}.B.@               ",
"              N ~.Q.*.Y P # % H H a V.D.D.C.b.Z.C.4.v.D.D.D.b.v.n.D.D.D.D.D.D.G.L.G.w.              ",
"              6 ` P I.T.m N D D i j.Z.D.D.C.D.D.D.v.Z.D.D.D.D.A.D.D.C.s.C.D.D.D.D.Z.V.p             ",
"              # W ~././ ^ M P w m.D.D.C.5.4.C.D.D.D.D.D.Z.D.r.6.C.Z.s.Z.D.D.D.D.D.D.D.w.            ",
"              X A W Q.C R.M 8 y.D.D.D.M.4.4.b.D.Z.l N.D.s.V.r.6.V.d.s.A.D.D.D.D.D.D.D.V.@           ",
"                    Z N /.8 i M.D.D.D.D.b.b.D.D.V.t Z.D.D.D.A.C.D.r.d.D.D.D.D.D.D.D.Z.D.l           ",
"                      A /.B i C.D.D.D.D.D.D.D.D.C.h 2.Z.D.D.D.D.D.7.d.D.D.D.D.D.D.D.y.k.y.          ",
"                      w 0.w - w.q.k.Z.D.D.D.D.D.D.3.5 E Z.D.D.D.D.r.s.D.D.D.D.D.A.A.z x.Z.@         ",
"                      z.D.x.% : H C n A.D.D.D.D.D.t  .O.E V.D.D.D.v.6.C.D.D.D.D.A.k.* g.D.q         ",
"                    X M.D.Z.w 6 F U 6 m.D.D.D.D.b.4 @.<.>.K D.D.D.Z.i.r.Z.D.C.D.c.8 } b D.l         ",
"                    X C.D.j.6 P D P ; k.D.D.D.D.t.< O.#.+X).J M.D.D.Z.u.r.d.v.Z.c &.>.s Z.x         ",
"                    X M.D.e.; D D B : l.D.D.D.D.2.< } +.$.+X[.T V.D.D.D.V.M.A.l.` [.%.5 n.x         ",
"                      m.D.f.q M 8 ; r V.D.D.D.D.9.< ' | #.#.].[.0 C.D.D.A.C.M.s `.,.@.9 v.l         ",
"                      y.D.C.5.d r k v.D.D.D.D.D.s.& ' [ | +.@.,.$.J x.j.A.n v 0 ,.+.o.5 M.q         ",
"                      0.D.D.V.v.v.V.Z.Z.D.D.D.D.C.p 1 ' ' } X.O.o.9 e t N.c.f 3 } } { u M.+         ",
"                      p D.D.l.a S A H m l.D.D.D.D.t.q 5 ' ' ' 1 & j r.b.A.A.V.y 2 ] > 9.e.          ",
"                      * m.C.p E./././.Q.l D.D.D.D.D.t.h , , , r 8.n.Z.h.A.b.b.d.2.k u.Z.p           ",
"                        d f P.(././././.! t.Z.D.D.D.Z.b.i.u.i.n.Z.A.A.n.A.V.V.A.A.A.A.m.@           ",
"                        X P._./././././.(.d 6.t.v.b.M.b.b.n.v.n.h.h.d.d.s.s.a.i.u.7.7.e             ",
"                          W /./././././.oXR j j j j j j j j h h j j j f f f f f j f d +             ",
"                            ( /././././.(.@X|.|.|. XXX X X X X XXXXX.X.XXX XXXXXXX XM               ",
"                            = ( Y./././.(././././.(./.(././././././././././././.W.P                 ",
"                              M ) U.W./././././.~././././././././././././././.!.W #                 ",
"                                : _ =.U.W././././././././././././././././.~.W.P                     ",
"                                  = Q =.=.I.R.W./././././././././././.~.Q.*.6                       ",
"                                      U _ =.=.I.U.R./.W././././.W.W.R.I.U =                         ",
"                                        ; U _ =.:._ _ =.:.:.I.:.=._ U :                             ",
"                                              B U ~ ) ) ( ^ Q H M                                   ",
"                                                                                                    ",
"                                                                                                    ",
"                                                                                                    ",
"                                                                                                    ",
"                                                                                                    "
};
