/* XPM */
static char *_e57b03285ef491194c82daba6073fe5IWage2Hn3qHLT4xT[] = {
/* columns rows colors chars-per-pixel */
"50 50 160 2 ",
"   c #000000",
".  c #030807",
"X  c #050B0B",
"o  c #050C13",
"O  c #091313",
"+  c #131F1F",
"@  c #0B2221",
"#  c #082928",
"$  c #182727",
"%  c #142826",
"&  c #182E2D",
"*  c #0C3734",
"=  c #1D3334",
"-  c #133F3D",
";  c #1D3B3A",
":  c #243837",
">  c #253D3C",
",  c #1E4442",
"<  c #1E4944",
"1  c #1C504D",
"2  c #1B5A58",
"3  c #254442",
"4  c #2C4543",
"5  c #294846",
"6  c #2F4A49",
"7  c #314C4B",
"8  c #235554",
"9  c #285752",
"0  c #325351",
"q  c #375957",
"w  c #34595D",
"e  c #3A5E5C",
"r  c #17675F",
"t  c #18645D",
"y  c #29635D",
"u  c #315E60",
"i  c #166C64",
"p  c #1B7C75",
"a  c #296664",
"s  c #296866",
"d  c #326865",
"f  c #3E6866",
"g  c #366C6C",
"h  c #296A7A",
"j  c #2F7575",
"k  c #277C75",
"l  c #287D75",
"z  c #277C7A",
"x  c #317270",
"c  c #397270",
"v  c #3C7D7A",
"b  c #407B7B",
"n  c #447370",
"m  c #517575",
"M  c #1E817A",
"N  c #2B817C",
"B  c #37807E",
"V  c #45837E",
"C  c #56817F",
"Z  c #1E8D85",
"A  c #258380",
"S  c #2C8781",
"D  c #2C8B84",
"F  c #278E88",
"G  c #328C84",
"H  c #318C8A",
"J  c #24928D",
"K  c #2E908E",
"L  c #33908D",
"P  c #249793",
"I  c #289A96",
"U  c #329290",
"Y  c #319996",
"T  c #2DA49D",
"R  c #32A69F",
"E  c #39A39D",
"W  c #36A7A3",
"Q  c #35ABA4",
"!  c #3DACA3",
"~  c #3FABA8",
"^  c #3DA6A3",
"/  c #37B5AF",
"(  c #458A85",
")  c #438A86",
"_  c #499692",
"`  c #439C95",
"'  c #499893",
"]  c #459B98",
"[  c #4F9B98",
"{  c #509A97",
"}  c #589298",
"|  c #6B9896",
" . c #639C9C",
".. c #44A59D",
"X. c #40A7A4",
"o. c #48A3A3",
"O. c #44A9A4",
"+. c #4DAAA4",
"@. c #52AAA6",
"#. c #41B2AE",
"$. c #50B5AF",
"%. c #5EB7AF",
"&. c #42B3B0",
"*. c #44B9B4",
"=. c #4DB7BB",
"-. c #44BFB9",
";. c #4ABDB1",
":. c #5DB7B0",
">. c #5DB8B0",
",. c #50BABB",
"<. c #6FB9B5",
"1. c #61BFBB",
"2. c #70BDB9",
"3. c #44C2BD",
"4. c #49C4BF",
"5. c #4AC9BD",
"6. c #51C0BB",
"7. c #47C6C1",
"8. c #46CAC5",
"9. c #4ACBC4",
"0. c #46CEC9",
"q. c #46D0CB",
"w. c #4AD2CD",
"e. c #67CECA",
"r. c #68CFCB",
"t. c #72C4C0",
"y. c #7ACAC8",
"u. c #7AC9C2",
"i. c #6ED3CE",
"p. c #7CD1CB",
"a. c #6BD6D0",
"s. c #6ADFD9",
"d. c #6AD9D4",
"f. c #72DBD7",
"g. c #75E3DE",
"h. c #74E5E0",
"j. c #88B3B3",
"k. c #87B3B3",
"l. c #94BEBC",
"z. c #83CFCC",
"x. c #9AC5C7",
"c. c #9DC8C6",
"v. c #90D1CF",
"b. c #8BD9D5",
"n. c #A5D8D7",
"m. c #A5D9D8",
"M. c #8DE1DD",
"N. c #85E0E0",
"B. c #92E3E5",
"V. c #96E9E7",
"C. c #97EBE8",
"Z. c #A0EAEC",
"A. c #B2E9E7",
"S. c #B6EEEC",
"D. c #AFF1F1",
"F. c #D9EBEA",
"G. c #DFF0EF",
"H. c #DFFBFA",
"J. c #E2F6F6",
"K. c #E0FBFA",
/* pixels */
"                                                                                                    ",
"                                                                                                    ",
"                                                                                                    ",
"                                                                                                    ",
"                                                                                                    ",
"                                                                                                    ",
"                                                                                                    ",
"                                                                                                    ",
"                                                                                                    ",
"                                                                                                    ",
"                                                                                                    ",
"                                                                                                    ",
"                                      . o $ + . o   O 2 @ .                                         ",
"                                    O > m } = O h o , r.C 5 - X                                     ",
"                                  X w x.F.B.c ; =., v D.G.v.$.%                                     ",
"                              # * . w Z.c.[ @.| z.3 j y.j.N.d . * #                                 ",
"                              * / 1 ; ] %.y p.J.A._ ..V y O.& 8 / *                                 ",
"                          o $ . 8 ,.d 1 5.4.f.v.i.6.3.&.<.l. .,.1 . X                               ",
"                          - $.d &  .n.r.8.J R G ..t p 3.V.H.m.g : u u O                             ",
"                        . 5 v.N.o.l.K.g.N M N ' E E N N ..g.i.1 ] Z.x.> .                           ",
"                        @ C G.j.s t.C...! Q ~ H N G O...E F w.9.:.c.F.m O                           ",
"                        2 e.D.y.( 4.3.l +.P c 0 3 e b I Q N T 9.a [ B.} $                           ",
"                        O , v j O.8.M N ^ c :     . 6 B #.N Q g.y.@.c ; +                           ",
"                        . o , 3 o.9.i W L q         . f Y ` L M.J.| ; O                             ",
"                        o h =.z.S.d...E S 7           e U E O.s.S.z.=.h o                           ",
"                          O ; | K.b.D ' H q         X n W W i w.] 3 , o                             ",
"                        + : c @.p.g.Q N ~ g : .   . 4 S &.S Z 0.] j b > O                           ",
"                        $ } B.{ y 7.I M Q J g q 4 0 x I +.l 9.*.( y.D.r.2                           ",
"                        O m F.c.1.5.q.D ! +.O.L N L #.Q ! O.C.2.s k.G.( @                           ",
"                          > x.C.' < e.h...l D Q E ' N M D g.K.l.O.b.v.5 .                           ",
"                          O u u > d n.H.C.3.M r ..G R J 3.1.m. .& d $.-                             ",
"                            . . 1 ,. .l.<.#.3.3.a.b.i.Q ;.3 g ,.8 X % X                             ",
"                              * / 8 & o.s V ` ) A.J.u.8 %.] : 1 / * .                               ",
"                              # * X d N.k.y.j 3 z.| @.[ c.Z.u . * #                                 ",
"                                  % $.v.F.D.b 3 =.; g B.F.x.w X                                     ",
"                                  X - 5 ( y., o h O = } m > O                                       ",
"                                      . @ 2 O   o . + $ O .                                         ",
"                                                                                                    ",
"                                                                                                    ",
"                                                                                                    ",
"                                                                                                    ",
"                                                                                                    ",
"                                                                                                    ",
"                                                                                                    ",
"                                                                                                    ",
"                                                                                                    ",
"                                                                                                    ",
"                                                                                                    ",
"                                                                                                    ",
"                                                                                                    "
};
