/* XPM */
static char *result[] = {
/* columns rows colors chars-per-pixel */
"50 50 2 1 ",
"  c #0038A8",
". c None",
/* pixels */
"...........                            ...........",
"...........                            ...........",
"...........                            ...........",
"...........    .....................   ...........",
"...........   ...................  .   ...........",
"...........   ............         .   ...........",
"...........   ......               .   ...........",
"...........   ......               .   ...........",
"...........   ......               .   ...........",
"...........   ......               .   ...........",
"...........   ......               .   ...........",
"...........   ......               .   ...........",
"...........   ......               .   ...........",
"...........   ......               .   ...........",
"...........   ......               .   ...........",
"...........   ......               .   ...........",
"...........   ......               .   ...........",
"...........   ......               .   ...........",
"...........   ......               .   ...........",
"...........   ......               .   ...........",
"...........   ......               .   ...........",
"...........   ......               .   ...........",
"...........   ......               .   ...........",
"...........   ......               .   ...........",
"...........   ......               .   ...........",
"...........   ......               .   ...........",
"...........   ......               .   ...........",
"...........   ......               .   ...........",
"...........   ......  ...          .   ...........",
"...........   ......   ..          .   ...........",
"...........   ......               .   ...........",
"...........   ......               .   ...........",
"...........   ......               .   ...........",
"...........   ......               .   ...........",
"...........   ......               .   ...........",
"...........   ......               .   ...........",
"...........   ......               .   ...........",
"...........   ......               .   ...........",
"...........   ......               .   ...........",
"...........   ......               .   ...........",
"...........   ......               .   ...........",
"...........   ......               .   ...........",
"...........   ......               .   ...........",
"...........   ......               .   ...........",
"...........   ......               .   ...........",
"....................             .................",
"....................          ....................",
"....................       .......................",
"....................    ..........................",
".................... ............................."
};
