/* XPM */
static char *result[] = {
/* columns rows colors chars-per-pixel */
"50 50 93 2 ",
"   c #1E1F29",
".  c #1D1E28",
"X  c #1C1D27",
"o  c #20212B",
"O  c #20212C",
"+  c #1D1F29",
"@  c #1E1F28",
"#  c #1E1F2A",
"$  c #16171F",
"%  c #0E0E13",
"&  c #0C0C10",
"*  c #0E0F14",
"=  c black",
"-  c #030304",
";  c #020203",
":  c #000001",
">  c #090A0D",
",  c #22242F",
"<  c #1F212B",
"1  c #1D1E27",
"2  c #040405",
"3  c #16161E",
"4  c #15151C",
"5  c #16161D",
"6  c #13131A",
"7  c #191A23",
"8  c #272836",
"9  c #14141B",
"0  c #13131B",
"q  c #14141C",
"w  c #131219",
"e  c #181921",
"r  c #252734",
"t  c #1F202A",
"y  c #1C1D26",
"u  c #121218",
"i  c #191922",
"p  c #1D1E29",
"a  c #15151B",
"s  c #121219",
"d  c #1F202C",
"f  c #171820",
"g  c #121319",
"h  c #1F202B",
"j  c #1A1B23",
"k  c #010101",
"l  c #1D1D27",
"z  c #191A22",
"x  c #030305",
"c  c #101116",
"v  c #252834",
"b  c #0B0B0F",
"n  c #040406",
"m  c #09090E",
"M  c #17171F",
"N  c #030203",
"B  c #0A0A0D",
"V  c gray1",
"C  c #131218",
"Z  c #17171E",
"A  c #262834",
"S  c #1F212A",
"D  c #262734",
"F  c #16171E",
"G  c #09090D",
"H  c #191B23",
"J  c #09090C",
"K  c #1A1A23",
"L  c #15161E",
"P  c #010001",
"I  c #1B1C25",
"U  c #252835",
"Y  c #0D0D12",
"T  c #0C0D11",
"R  c #272936",
"E  c #1A1B25",
"W  c #242632",
"Q  c #22232F",
"!  c #1F212C",
"~  c #08090B",
"^  c #08080B",
"/  c #1A1B24",
"(  c #020304",
")  c #15151D",
"_  c #0A0A0E",
"`  c #0E0F13",
"'  c #161820",
"]  c #13151C",
"[  c #13161C",
"{  c #191B24",
"}  c #21222E",
"|  c #21232E",
" . c white",
/* pixels */
"                                                                                                    ",
"        . . . . . . . . . . . . . . . . . . . . . . . . . . . . . . . . . .                         ",
"      .   . . . . . . . . . . . . . . . . . . . . . . . . . . . . . . . .     .                     ",
"    .   . X X X X X X X X X X X X X X X X X X X X X X X X X X X X X X X . .     .                   ",
"  .   . .   o O O O O O O O O O O O O O O O O O O O O O O O O O O O O O + X . .   @                 ",
"  . . X # $ % % % % % % % % % % % % % % % % % % % % % % % % % % % % % & $ O X .   .                 ",
"  . . X O * = - ; ; ; ; ; ; ; ; ; ; ; ; ; ; ; ; ; ; ; ; ; ; ; ; ; - : > , < 1   .                   ",
"  . . X O * 2 3 4 4 4 4 4 4 4 4 4 4 4 4 4 4 4 4 4 4 4 4 4 4 4 4 5 6 7 8 O X   @ .                   ",
"  . . X O * - 4 9 9 0 0 0 0 0 0 0 0 0 0 0 0 0 0 0 0 0 0 0 9 0 q w e r t y . .   . @   . . . @       ",
"  . . X O * - 4 9 9 9 9 9 9 9 9 9 9 9 9 9 9 9 9 9 9 9 9 9 9 q u i r < X . .   . @       .   p       ",
"  . . X O * - 4 0 9 4 4 4 4 4 4 4 4 4 4 4 4 4 4 4 4 4 4 a 4 w i r < X . .   . @   .   . . . @ p @   ",
"  . . X O * - 4 9 9 4 9 9 9 9 9 9 9 9 9 9 9 9 9 9 4 9 9 4 s i r < X . .   . @   . @ .   + 1 .   .   ",
"  . . X O * - 4 9 9 4 9 4 4 4 4 4 4 4 4 4 4 4 9 4 9 9 4 w i r < X . .   . @   . @ 1 d f g t X . .   ",
"  . . X O * - 4 9 9 4 9 4 4 4 4 4 4 4 4 4 4 9 4 9 9 4 w i r < X . .   . @   . @ 1 h j k % O X . .   ",
"  . . X O * - 4 9 9 4 9 4 4 4 4 4 4 4 4 4 9 4 9 9 4 w i r < X . .   . @   . @ l h z x = c < X . .   ",
"  . . X O * - 4 9 9 4 9 4 4 4 4 4 4 4 4 9 4 9 9 4 w i v < X . .   . @   . @ 1 h z ; b n % O X . .   ",
"  . . X O * - 4 9 9 4 9 4 4 4 4 4 4 4 9 4 9 9 4 u i v < X . .   . @ p . @ 1 h z ; m M N * O X . .   ",
"  . . X O * - 4 9 9 4 9 4 4 4 4 4 4 9 4 9 9 4 u i v < X . .   . @   . @ 1 h z ; B 3 4 V * O X . .   ",
"  . . X O * - 4 9 9 4 9 4 4 4 4 4 9 4 9 9 4 C i v < X . .   . @   . @ 1 h 7 ; B Z 9 4 - * O X . .   ",
"  . . X O * - 4 9 9 4 9 4 4 4 4 9 4 9 9 4 u i v < X . .   . @   . @ 1 h 7 ; B Z 9 9 4 - * O X . .   ",
"  . . X O * - 4 9 9 4 9 4 4 4 9 4 9 9 4 u i A S X . .   . @ p . @ 1 h 7 ; B Z 9 9 9 4 - * O X . .   ",
"  . . X O * - 4 9 9 4 9 4 4 9 4 9 9 4 u i D S X . .   . @   . @ l h 7 ; B Z 9 9 9 9 4 - * O X . .   ",
"  . . X O * - 4 9 9 4 9 4 9 4 9 9 4 u z A S X . .   . @   . @ 1 h z ; B F 9 9 9 9 9 4 - * O X . .   ",
"  . . X O * - 4 9 9 4 9 9 4 9 9 4 u z A S X . .   . @ p . @ 1 h 7 ; B Z 9 9 9 4 9 9 4 - * O X . .   ",
"  . . X O * - 4 9 9 4 9 4 9 9 4 u z D t X . .   . @   . @ 1 h j ; G 3 9 9 9 4 4 9 9 4 - * O X . .   ",
"  . . X O * - 4 9 9 4 4 9 9 4 s 7 D t X . .   . @   . @ 1 h j ; G 3 9 9 9 4 9 4 9 9 4 - * O X . .   ",
"  . . X O * - 4 9 9 4 9 9 4 u 7 A t X . .   . @   . @ 1 h 7 ; G 3 9 9 9 4 4 9 4 9 9 4 - * O X . .   ",
"  . . X O * - 4 0 9 4 9 4 u 7 A t X . .   . @ p . @ 1 h H ; G 3 9 9 9 4 4 9 9 4 9 9 4 - * O X . .   ",
"  . . X O * - 4 9 9 9 4 u 7 D t X . .   . @   . @ 1 h H ; G 3 9 9 9 4 4 9 4 9 4 9 9 4 - * O X . .   ",
"  . . X O * - 4 9 9 4 u 7 D t X . .   . @   . @ 1 h 7 ; J 3 9 9 9 4 4 9 4 4 9 4 9 9 4 - * O X . .   ",
"  . . X O * - 4 9 4 u 7 A t X . .   . @ p . @ 1 h K ; J 3 9 9 9 4 4 9 4 4 4 9 4 9 9 4 - * O X . .   ",
"  . . X O * - 4 q u K D t X . .   . @   . @ 1 h 7 ; J 3 9 9 9 4 4 9 4 4 4 4 9 4 9 9 4 - * O X . .   ",
"  . . X O * - L s j A t X . .   . @   . @ l h H ; J 3 9 9 9 4 4 9 4 4 4 4 4 9 4 9 9 4 - * O X . .   ",
"  . . X O * x 6 j A t X . .   . @   . @ 1 h 7 ; J 3 9 9 9 4 4 9 4 4 4 4 4 4 9 4 9 9 4 - * O X . .   ",
"  . . X O * P I U t X . .   . @ p . @ 1 h H ; J 3 9 9 9 4 4 4 4 4 4 4 4 4 4 9 4 9 9 4 - * O X . .   ",
"  . . X O Y T R t X . .   . @   . @ 1 h H ; J 3 9 9 9 4 4 9 4 4 4 4 4 4 4 4 9 4 9 9 4 - * O X . .   ",
"  . . . . E W h X . .   . @   . @ 1 h 7 ; J 3 9 9 9 4 4 9 4 4 4 4 4 4 4 4 4 9 4 9 9 4 - * O X . .   ",
"  .     X Q ! X . .   . @   . @ 1 h 7 ; J 3 9 9 9 4 4 9 4 4 4 4 4 4 4 4 4 4 9 4 9 9 4 - * O X . .   ",
"  .   . . X . . .   . @   . @ 1 h K ; J 3 9 9 9 4 9 9 9 9 9 9 9 9 9 9 9 9 9 9 4 9 9 4 - * O X . .   ",
"  .   . . .   .   . @   . @ l h j ; ~ 3 9 9 9 4 4 4 4 4 4 4 4 4 4 4 4 4 4 4 4 4 9 0 4 - * O X . .   ",
"                . @ p . @ 1 h 7 ; ~ 3 9 9 9 9 9 9 9 9 9 9 9 9 9 9 9 9 9 9 9 9 9 9 9 4 - * O X . .   ",
"      . . .   .   p @ @ 1 h j ; ^ 3 9 9 9 9 9 9 9 9 9 9 9 9 9 9 9 9 9 9 9 9 9 9 9 9 4 - * O X . .   ",
"                .   . . o / ( J M 4 4 ) ) ) ) ) ) ) ) ) ) ) ) ) ) ) ) ) ) ) ) ) ) 4 Z - * O X . .   ",
"              .   . .   f ; = x ; ; ; ; ; ; ; ; ; ; ; ; ; ; ; ; ; ; ; ; ; ; ; ; ; ; - = * O X . .   ",
"              .   . . 1 _ ` ' ] ] ] ] ] ] ] ] ] ] ] ] ] ] ] ] ] ] ] ] ] ] ] ] ] ] ] ] [ {   .   .   ",
"              .   . . X 1 O } | } } } } } } } } } } } } } } } } } } } } } } } } } } | | t . .   .   ",
"                .   . .   1 X X X X X X X X X X X X X X X X X X X X X X X X X X X X X y . @ . p @   ",
"                  .   @ . +                                                               .         ",
"                    . .   @ . . . . . . . . . . . . . . . . . . . . . . . . . . . . . . . @ .       ",
"                                                                                                    "
};
